<svg xmlns="http://www.w3.org/2000/svg" xmlns:xlink="http://www.w3.org/1999/xlink" viewBox="0 0 363.14 179.3"><defs><style>.cls-1{fill:url(#Nueva_muestra_de_degradado_1);}.cls-2,.cls-5,.cls-8{fill:#1e222b;}.cls-3{fill:url(#Nueva_muestra_de_degradado_1-2);}.cls-4{fill:url(#Nueva_muestra_de_degradado_1-3);}.cls-5{font-size:46.49px;font-family:Impact;}.cls-6{letter-spacing:0.02em;}.cls-7{letter-spacing:-0.02em;}.cls-8{font-size:30px;font-family:ArialNarrow, Arial Narrow;}.cls-9{letter-spacing:-0.01em;}</style><radialGradient id="Nueva_muestra_de_degradado_1" cx="70.02" cy="33.11" r="4.18" gradientUnits="userSpaceOnUse"><stop offset="0.1" stop-color="#e9ad2b"/><stop offset="0.11" stop-color="#e9ac2b"/><stop offset="0.34" stop-color="#e18a2f"/><stop offset="0.56" stop-color="#dc7131"/><stop offset="0.76" stop-color="#d86232"/><stop offset="0.92" stop-color="#d75d33"/></radialGradient><radialGradient id="Nueva_muestra_de_degradado_1-2" cx="93.57" cy="54.35" r="8.15" xlink:href="#Nueva_muestra_de_degradado_1"/><radialGradient id="Nueva_muestra_de_degradado_1-3" cx="45.37" cy="32.82" r="38.53" xlink:href="#Nueva_muestra_de_degradado_1"/></defs><g id="OBJECTS"><path class="cls-1" d="M74.2,33.11A4.18,4.18,0,1,1,70,28.93,4.19,4.19,0,0,1,74.2,33.11Z"/><path class="cls-2" d="M30.26,71.79a11.29,11.29,0,0,0-2.51.72V14.84h73.18a30.23,30.23,0,0,0-6.09,8H35.75V70.91Zm5.49,44.13v-8.08a56.59,56.59,0,0,1-7.42-14.4c-.2-.07-.38-.17-.58-.25v30.73H53.22a57.85,57.85,0,0,1-10.49-8Zm93.08,0h-6.74a56.71,56.71,0,0,1-10.49,8h25.23V92a56.59,56.59,0,0,1-8,16.09Z"/><path class="cls-3" d="M100.47,60.88a4,4,0,0,0,.45-1.84,4.19,4.19,0,1,0-7.24,2.83Z"/><path class="cls-4" d="M64.92,66.06c-3.64-3.82-7-8.11-8.26-12a159.84,159.84,0,0,0,13.4,11.21l10-1.46C78.24,54.52,70.69,39,41.16,35.23c0,0-3.9,20.87,8,33.13Z"/><path class="cls-2" d="M132.09,65A51.1,51.1,0,0,1,31.62,83.79Z"/><path class="cls-2" d="M26.67,84.66a5.21,5.21,0,0,0,6.08,4.16L132.86,70.13A5.21,5.21,0,0,0,137,64.06h0A5.2,5.2,0,0,0,131,59.9L30.84,78.58a5.21,5.21,0,0,0-4.17,6.08Z"/><text class="cls-5" transform="translate(145.82 125.87)">F<tspan class="cls-6" x="18.5" y="0">L</tspan><tspan class="cls-7" x="37.34" y="0">A</tspan><tspan x="59.93" y="0" xml:space="preserve">VOURY                       </tspan></text><text class="cls-8" transform="translate(237.43 155.26)">S<tspan class="cls-9" x="16.41" y="0">T</tspan><tspan x="31.01" y="0">OCK</tspan></text></g></svg>